<svg xmlns="http://www.w3.org/2000/svg" version="1.1" xmlns:xlink="http://www.w3.org/1999/xlink" width="512" height="512" x="0" y="0" viewBox="0 0 512 512" style="enable-background:new 0 0 512 512" xml:space="preserve" class=""><g><path d="M227.745 56.28c.25.611.561 1.192.922 1.733.361.551.782 1.062 1.243 1.523s.981.882 1.523 1.252c.541.361 1.132.661 1.734.912.601.25 1.232.451 1.874.581a9.87 9.87 0 0 0 1.954.19c.66 0 1.312-.06 1.964-.19.641-.13 1.262-.33 1.873-.581.602-.25 1.183-.551 1.724-.912a10.88 10.88 0 0 0 1.532-1.252c.461-.461.872-.972 1.243-1.523a10.118 10.118 0 0 0 1.493-3.607c.13-.642.191-1.302.191-1.954a9.888 9.888 0 0 0-.762-3.828 9.839 9.839 0 0 0-.922-1.733 10.196 10.196 0 0 0-1.243-1.523 10.088 10.088 0 0 0-1.532-1.242 10.084 10.084 0 0 0-3.597-1.493 9.938 9.938 0 0 0-3.918 0 10.175 10.175 0 0 0-3.608 1.493c-.541.361-1.062.781-1.523 1.242s-.882.972-1.243 1.523a10.118 10.118 0 0 0-1.693 5.561 10.14 10.14 0 0 0 .771 3.828zM265.759 56.29c.25.601.561 1.182.922 1.724.36.551.781 1.062 1.242 1.523s.973.882 1.523 1.252c.541.361 1.132.661 1.733.912.602.25 1.233.451 1.874.571.642.13 1.302.2 1.954.2s1.313-.07 1.964-.2a9.8 9.8 0 0 0 1.874-.571c.601-.25 1.182-.551 1.723-.912a10.263 10.263 0 0 0 1.523-1.252 9.61 9.61 0 0 0 1.252-1.523c.36-.541.671-1.122.922-1.724.25-.611.44-1.242.571-1.873.13-.652.19-1.313.19-1.964a9.887 9.887 0 0 0-.761-3.828 9.905 9.905 0 0 0-3.697-4.498 10.112 10.112 0 0 0-1.723-.922 10.654 10.654 0 0 0-1.874-.571 9.938 9.938 0 0 0-3.918 0c-.641.13-1.272.32-1.874.571-.601.25-1.182.561-1.733.922s-1.063.781-1.523 1.242a10.099 10.099 0 0 0-2.935 7.084c0 .652.07 1.313.201 1.964.129.63.32 1.262.57 1.873z" fill="#7c89a9" opacity="1" data-original="#000000" class=""></path><path d="M351.213 424.529h-29.472v-24.474c0-5.534-4.486-10.02-10.02-10.02-5.533 0-10.02 4.486-10.02 10.02v24.474h-35.679V289.483h35.679v20.516c0 5.534 4.486 10.02 10.02 10.02 5.533 0 10.02-4.486 10.02-10.02l-.005-139.01 98.244-99.285c7.198-7.27 11.161-16.911 11.161-27.149 0-10.061-3.852-19.587-10.849-26.825-14.704-15.2-39.108-15.693-54.399-1.095l-46.072 43.964C318.096 26.892 290.132 0 256.004 0c-34.134 0-62.103 26.901-63.819 60.615L146.093 16.63c-7.216-6.88-16.675-10.668-26.633-10.668-10.552 0-20.407 4.178-27.758 11.773-14.458 14.965-14.318 39.174.314 53.967l98.254 99.296-.004 253.531h-29.471c-42.706 0-77.451 34.745-77.451 77.452 0 5.534 4.486 10.02 10.02 10.02h325.281c5.533 0 10.02-4.486 10.02-10.02-.001-42.708-34.745-77.452-77.452-77.452zM405.887 31.66a18.464 18.464 0 0 1 5.215 12.895c0 4.922-1.904 9.557-5.365 13.052l-3.977 4.019-25.904-26.801 3.871-3.694c7.353-7.017 19.088-6.781 26.16.529zM256.004 20.039c24.186 0 43.863 19.677 43.863 43.864s-19.677 43.864-43.863 43.864c-24.187 0-43.864-19.677-43.864-43.864s19.677-43.864 43.864-43.864zM106.107 31.665c3.535-3.652 8.277-5.663 13.352-5.663 4.786 0 9.334 1.823 12.803 5.13l3.874 3.697-25.901 26.796-3.974-4.016c-7.034-7.112-7.101-18.754-.154-25.944zm18.227 44.208 26.3-27.209 50.832 48.507c11.24 18.358 31.48 30.635 54.538 30.635 23.077 0 43.333-12.297 54.567-30.681l50.788-48.465 26.304 27.214-83.077 83.957a10.01 10.01 0 0 0-2.888 7.387v102.226H210.309V166.878c0-2.639-1.041-5.172-2.897-7.047zm85.971 213.61h35.679v135.046h-35.679zM104.258 491.961c4.752-26.899 28.296-47.393 56.537-47.393h190.418c28.241 0 51.785 20.494 56.537 47.393z" fill="#7c89a9" opacity="1" data-original="#000000" class=""></path><path d="M500.8 193.119c-2.394-7.372-8.647-12.643-16.318-13.758l-14.006-2.035-6.265-12.692c-3.43-6.949-10.375-11.267-18.124-11.267h-.001c-7.75 0-14.697 4.318-18.127 11.268l-6.263 12.692-14.007 2.035c-7.669 1.115-13.922 6.387-16.317 13.758-2.394 7.371-.435 15.311 5.114 20.72l10.135 9.88-2.392 13.949c-1.31 7.639 1.771 15.214 8.041 19.77 6.27 4.557 14.429 5.145 21.289 1.539l12.527-6.586 12.527 6.587a20.23 20.23 0 0 0 9.425 2.343c4.173 0 8.32-1.308 11.862-3.882 6.271-4.555 9.352-12.131 8.043-19.771l-2.393-13.949 10.134-9.879c5.551-5.411 7.511-13.351 5.116-20.722zm-19.103 6.37-13.907 13.556a10.025 10.025 0 0 0-2.882 8.869l3.284 19.14c.009.052.011.085.014.091a.57.57 0 0 1-.163.138s-.033-.007-.104-.044l-17.19-9.038a10.01 10.01 0 0 0-9.324 0l-17.189 9.037c-.048.025-.078.036-.084.041a.565.565 0 0 1-.181-.112c0-.001-.003-.034.011-.113l3.283-19.141a10.02 10.02 0 0 0-2.882-8.868l-13.907-13.556c-.038-.037-.058-.062-.065-.066a.54.54 0 0 1 .051-.206c.001 0 .032-.014.11-.025l19.219-2.793a10.02 10.02 0 0 0 7.545-5.481l8.594-17.415c.023-.047.042-.075.043-.082a.567.567 0 0 1 .212-.016.485.485 0 0 0 .059.098l8.596 17.415a10.016 10.016 0 0 0 7.544 5.48l19.218 2.793c.051.007.081.016.09.016h.001a.56.56 0 0 1 .08.196c-.001.001-.019.03-.076.086zM394.275 327.183c-5.533 0-10.02 4.486-10.02 10.02v5.433h-5.433c-5.533 0-10.02 4.486-10.02 10.02s4.486 10.02 10.02 10.02h5.433v5.433c0 5.534 4.486 10.02 10.02 10.02s10.02-4.486 10.02-10.02v-5.433h5.433c5.533 0 10.02-4.486 10.02-10.02s-4.486-10.02-10.02-10.02h-5.433v-5.433c0-5.534-4.487-10.02-10.02-10.02zM99.73 257.437c6.27-4.556 9.351-12.131 8.041-19.77l-2.392-13.95 10.135-9.88c5.55-5.409 7.509-13.349 5.114-20.72s-8.648-12.643-16.318-13.758l-14.006-2.035-6.264-12.692c-3.431-6.951-10.377-11.268-18.127-11.268s-14.695 4.318-18.124 11.267l-6.265 12.692-14.007 2.035c-7.67 1.115-13.923 6.387-16.317 13.758s-.434 15.311 5.115 20.72l10.135 9.879-2.393 13.951c-1.309 7.639 1.772 15.214 8.043 19.77 6.27 4.555 14.427 5.144 21.287 1.538l12.527-6.586 12.528 6.587a20.227 20.227 0 0 0 9.425 2.343c4.174.002 8.32-1.306 11.863-3.881zm-29.154-25.235a10.014 10.014 0 0 0-9.324 0l-17.19 9.037c-.047.024-.077.036-.082.041a.571.571 0 0 1-.182-.113s-.003-.034.011-.112l3.284-19.141a10.023 10.023 0 0 0-2.882-8.869l-13.908-13.557c-.037-.037-.058-.062-.064-.066a.543.543 0 0 1 .05-.206c.001 0 .032-.014.11-.025l19.219-2.793a10.016 10.016 0 0 0 7.544-5.48l8.596-17.415.001-.001c.023-.046.041-.074.042-.081a.547.547 0 0 1 .212-.016s.023.026.058.097l8.595 17.415a10.02 10.02 0 0 0 7.545 5.481l19.218 2.793c.051.007.081.016.09.016h.001c.04.051.078.17.08.197 0 0-.018.03-.074.085l-13.907 13.556a10.024 10.024 0 0 0-2.882 8.868l3.283 19.142c.01.052.011.084.014.091a.551.551 0 0 1-.163.137s-.033-.007-.104-.044zM117.725 327.183c-5.533 0-10.02 4.486-10.02 10.02v5.433h-5.433c-5.533 0-10.02 4.486-10.02 10.02s4.486 10.02 10.02 10.02h5.433v5.433c0 5.534 4.486 10.02 10.02 10.02 5.533 0 10.02-4.486 10.02-10.02v-5.433h5.433c5.533 0 10.02-4.486 10.02-10.02s-4.486-10.02-10.02-10.02h-5.433v-5.433c0-5.534-4.487-10.02-10.02-10.02z" fill="#7c89a9" opacity="1" data-original="#000000" class=""></path><circle cx="311.718" cy="355.026" r="10.02" fill="#7c89a9" opacity="1" data-original="#000000" class=""></circle></g></svg>