<svg xmlns="http://www.w3.org/2000/svg" version="1.1" xmlns:xlink="http://www.w3.org/1999/xlink" width="512" height="512" x="0" y="0" viewBox="0 0 512 512" style="enable-background:new 0 0 512 512" xml:space="preserve" class=""><g><path d="M472 72H40C17.944 72 0 89.944 0 112v288c0 22.056 17.944 40 40 40h432c22.056 0 40-17.944 40-40V112c0-22.056-17.944-40-40-40zM16 400V136h104v288H40c-13.234 0-24-10.767-24-24zm456 24H136V136h312a8 8 0 0 0 0-16H16v-8c0-13.233 10.766-24 24-24h432c13.234 0 24 10.767 24 24v8h-16a8 8 0 0 0 0 16h16v264c0 13.233-10.766 24-24 24z" fill="#1fafeb" opacity="1" data-original="#000000" class=""></path><path d="M40 96c-2.1 0-4.17.85-5.66 2.34A8.05 8.05 0 0 0 32 104c0 2.109.85 4.17 2.34 5.66C35.83 111.149 37.9 112 40 112s4.16-.851 5.66-2.34A8.052 8.052 0 0 0 48 104c0-2.11-.85-4.17-2.34-5.66A8.068 8.068 0 0 0 40 96zM64 96c-2.1 0-4.17.85-5.66 2.34A8.05 8.05 0 0 0 56 104c0 2.109.85 4.17 2.34 5.66C59.83 111.149 61.9 112 64 112s4.16-.851 5.66-2.34A8.052 8.052 0 0 0 72 104c0-2.11-.85-4.17-2.34-5.66A8.068 8.068 0 0 0 64 96zM88 96c-2.1 0-4.17.85-5.66 2.34A8.05 8.05 0 0 0 80 104c0 2.109.85 4.17 2.34 5.66C83.83 111.149 85.9 112 88 112s4.17-.851 5.66-2.34A8.068 8.068 0 0 0 96 104c0-2.101-.85-4.17-2.34-5.66A8.05 8.05 0 0 0 88 96zM40 168h56a8 8 0 0 0 0-16H40a8 8 0 0 0 0 16zM96 184H40a8 8 0 0 0 0 16h56a8 8 0 0 0 0-16zM96 216H40a8 8 0 0 0 0 16h56a8 8 0 0 0 0-16zM72 248H40a8 8 0 0 0 0 16h32a8 8 0 0 0 0-16zM72 280H40a8 8 0 0 0 0 16h32a8 8 0 0 0 0-16zM48 312h-8a8 8 0 0 0 0 16h8a8 8 0 0 0 0-16zM216 240c10.684 0 20.729 4.16 28.284 11.716a8.001 8.001 0 0 0 11.313 0 7.999 7.999 0 0 0 0-11.314c-21.834-21.834-57.362-21.832-79.195 0C165.825 250.979 160 265.042 160 280s5.825 29.021 16.402 39.599c10.917 10.917 25.257 16.375 39.598 16.375s28.681-5.458 39.598-16.375a7.999 7.999 0 0 0 0-11.314 8.001 8.001 0 0 0-11.313 0C236.729 315.84 226.684 320 216 320s-20.729-4.16-28.284-11.716C180.161 300.729 176 290.685 176 280s4.161-20.729 11.716-28.284C195.271 244.16 205.316 240 216 240zM328.021 300.668c14.125-6.18 24.019-20.29 24.019-36.668 0-22.056-17.944-40-40-40H280a8 8 0 0 0-7.961 8.795V328a8 8 0 0 0 16 0v-88h24c13.233 0 24 10.767 24 24s-10.767 24-24 24a8 8 0 0 0-5.657 13.657l32 32c1.562 1.562 3.609 2.343 5.657 2.343s4.095-.781 5.657-2.343a7.999 7.999 0 0 0 0-11.314l-21.675-21.675zM458.046 224.256a8.005 8.005 0 0 0-9 3.859l-33.007 59.412-33.007-59.412A8 8 0 0 0 368.039 232v96a8 8 0 0 0 16 0v-65.127l25.007 45.012a8 8 0 0 0 13.986 0l25.007-45.012V328a8 8 0 0 0 16 0v-96a7.998 7.998 0 0 0-5.993-7.744z" fill="#1fafeb" opacity="1" data-original="#000000" class=""></path></g></svg>