<svg xmlns="http://www.w3.org/2000/svg" version="1.1" xmlns:xlink="http://www.w3.org/1999/xlink" width="512" height="512" x="0" y="0" viewBox="0 0 512.191 512.191" style="enable-background:new 0 0 512 512" xml:space="preserve" class=""><g><path d="M256.096 481.713a14.99 14.99 0 0 1-7.499-2.004c-84.454-48.767-147.583-99.643-189.066-152.24H7.5c-4.142 0-7.5-3.357-7.5-7.5s3.358-7.5 7.5-7.5h40.82C17.428 268.733 1.343 223.85.251 178.046c-.779-32.688 9.636-65.005 29.327-91 19.449-25.676 47.095-44.183 77.846-52.112a7.497 7.497 0 0 1 9.135 5.39 7.499 7.499 0 0 1-5.39 9.136C83.68 56.547 58.95 73.112 41.535 96.104c-17.65 23.302-26.986 52.275-26.288 81.585 1.09 45.771 18.363 90.79 51.611 134.808 43.985.663 68.661 13.104 92.543 25.147 25.317 12.767 49.231 24.825 96.694 24.825s71.377-12.059 96.694-24.825c23.877-12.041 48.548-24.479 92.517-25.146 33.179-43.904 50.552-89.254 51.637-134.809.842-35.341-12.268-68.697-36.914-93.924-24.122-24.69-56.281-38.286-90.553-38.286h-.071c-43.362.024-83.367 21.869-107.012 58.437a7.5 7.5 0 0 1-12.596 0c-23.645-36.567-63.649-58.412-107.012-58.437a7.5 7.5 0 0 1 .004-15h.004c44.808.024 86.4 20.883 113.301 56.312 26.901-35.43 68.493-56.288 113.302-56.312h.08c38.348 0 74.312 15.198 101.282 42.803 27.495 28.143 42.12 65.349 41.181 104.765-1.086 45.598-17.237 90.762-48.039 134.423h40.79c4.142 0 7.5 3.357 7.5 7.5s-3.358 7.5-7.5 7.5h-55.658c-42.751 0-65.454 11.448-89.489 23.568-25.77 12.994-52.417 26.432-103.448 26.432s-77.678-13.438-103.448-26.432c-20.815-10.496-40.629-20.488-73.333-22.978 40.206 47.547 99.222 93.872 176.786 138.66 65.999-38.115 119.235-77.89 158.221-118.219a7.5 7.5 0 1 1 10.785 10.425c-39.956 41.332-94.297 81.97-161.513 120.783a14.982 14.982 0 0 1-7.497 2.004zm.095-134.244c-61.707 0-88.331-17.993-102.854-31.104-34.686-31.313-54.553-80.44-56.251-112.785a7.5 7.5 0 0 1 2.161-5.671 7.48 7.48 0 0 1 5.649-2.216c16.346.699 34.724 4.62 52.803 10.814.663-18.137 3.859-35.097 9.206-48.514a7.5 7.5 0 0 1 9.901-4.125c12.534 5.327 25.767 13.402 38.64 23.547 9.78-21.48 22.612-40.236 35.366-52.896a7.501 7.501 0 0 1 10.567 0c13.81 13.708 26.05 32.564 35.229 53.005 12.917-10.196 26.199-18.31 38.777-23.656a7.501 7.501 0 0 1 9.902 4.125c5.347 13.417 8.542 30.377 9.206 48.514 18.08-6.194 36.457-10.115 52.803-10.814a7.471 7.471 0 0 1 5.649 2.216 7.503 7.503 0 0 1 2.161 5.671c-1.698 32.345-21.284 81.787-56.251 112.785-15.346 13.604-40.957 31.104-102.664 31.104zm57.417-105.227c.156 2.557.235 5.074.235 7.553 0 27.304-12.688 54.228-38.687 81.904 32.907-2.502 56.587-11.069 73.646-26.469 28.342-25.586 46.183-65.352 50.435-93.841-25.404 2.971-58.939 14.096-85.629 30.853zM112.953 211.39c4.252 28.489 22.093 68.255 50.436 93.841 17.044 15.387 40.696 23.952 73.562 26.462-6.978-7.358-12.88-14.51-17.85-21.61a7.5 7.5 0 0 1 12.289-8.601c4.472 6.391 9.808 12.865 16.132 19.562-3.046-28.12-12.531-49.076-28.767-63.732a125.872 125.872 0 0 0-5.35-4.559c.301 7.619 1.76 15.251 4.351 22.729a7.5 7.5 0 1 1-14.174 4.91c-3.474-10.027-5.235-20.321-5.235-30.595 0-2.514.072-5.039.213-7.566-26.686-16.752-60.208-27.872-85.607-30.841zm101.331 23.311c5.265 3.681 10.143 7.52 14.523 11.474 19.799 17.873 30.986 43.09 33.979 76.775 23.23-24.261 35.057-47.355 35.997-70.197a125.014 125.014 0 0 0-5.347 4.557c-5.393 4.867-10.105 10.529-14.008 16.828a7.5 7.5 0 0 1-12.752-7.898c4.646-7.501 10.268-14.251 16.708-20.064 4.369-3.944 9.233-7.774 14.483-11.446-4.365-34.883-22.724-72.021-41.779-93.912-18.911 21.626-37.486 58.139-41.804 93.883zm88.226-42.665c4.118 11.27 7.252 22.754 9.169 33.9 8.774-5.098 18.214-9.746 27.937-13.791-.118-15.025-2.083-29.229-5.647-41.064-10.257 5.219-21.132 12.453-31.459 20.955zm-129.934 20.11c9.674 4.025 19.071 8.649 27.809 13.717 1.905-11.54 5.063-22.998 9.109-33.981-10.271-8.435-21.078-15.613-31.271-20.8-3.565 11.835-5.529 26.038-5.647 41.064z" fill="#7c89a9" opacity="1" data-original="#000000"></path></g></svg>