<svg xmlns="http://www.w3.org/2000/svg" version="1.1" xmlns:xlink="http://www.w3.org/1999/xlink" width="512" height="512" x="0" y="0" viewBox="0 0 91 91" style="enable-background:new 0 0 512 512" xml:space="preserve" class=""><g><path d="M64.46 45.69a1.16 1.16 0 0 1-.54-.13L46 36.92a1.24 1.24 0 0 1-.7-1.11V16.48a1.25 1.25 0 0 1 .58-1.05 1.23 1.23 0 0 1 1.12-.06L65 24a1.24 1.24 0 0 1 .7 1.11v19.34a1.24 1.24 0 0 1-.58 1 1.3 1.3 0 0 1-.66.24zM47.74 35l15.48 7.45V25.91l-15.48-7.46z" fill="#023acd" opacity="1" data-original="#000000" class=""></path><path d="M64.46 26.35a1.29 1.29 0 0 1-.54-.12L46 17.59a1.24 1.24 0 0 1-.7-1.12 1.23 1.23 0 0 1 .7-1.11l18-8.63a1.25 1.25 0 0 1 1.07 0l18 8.64a1.24 1.24 0 0 1 .7 1.12A1.21 1.21 0 0 1 83 17.6l-18 8.63a1.29 1.29 0 0 1-.54.12zm-15.1-9.88 15.1 7.27 15.11-7.25-15.1-7.27z" fill="#023acd" opacity="1" data-original="#000000" class=""></path><path d="M64.46 45.69a1.3 1.3 0 0 1-.66-.19 1.24 1.24 0 0 1-.58-1V25.13a1.23 1.23 0 0 1 .7-1.11l18-8.65a1.23 1.23 0 0 1 1.19.06 1.25 1.25 0 0 1 .58 1.05v19.33a1.24 1.24 0 0 1-.7 1.11L65 45.56a1.16 1.16 0 0 1-.54.13zm1.24-19.78v16.57L81.18 35V18.45zM55.48 22a1.24 1.24 0 0 1-.48-2.32l18-8.63a1.24 1.24 0 0 1 1 2.23l-18 8.63a1.32 1.32 0 0 1-.52.09zM57.89 30.51a1.32 1.32 0 0 1-.54-.12l-5.3-2.55a1.24 1.24 0 1 1 1.07-2.23l5.31 2.55a1.24 1.24 0 0 1-.54 2.35zM38.2 23.22h-15A1.23 1.23 0 0 1 22 22V10.79a1.24 1.24 0 0 1 1.24-1.24h5.62a9.19 9.19 0 0 1 16.14.69 1.24 1.24 0 0 1-2.22 1.1 6.72 6.72 0 0 0-12.09 0 1.22 1.22 0 0 1-1.11.69h-5.1v8.71H38.2a1.24 1.24 0 0 1 0 2.48z" fill="#023acd" opacity="1" data-original="#000000" class=""></path><path d="M63.17 85.92H8.6a1.23 1.23 0 0 1-1.23-1.23V15.27A1.23 1.23 0 0 1 8.6 14h14.64a1.24 1.24 0 1 1 0 2.47H9.84v67h53.33a5.11 5.11 0 0 0 5.11-5.11V49.41a1.24 1.24 0 1 1 2.47 0v28.93a7.59 7.59 0 0 1-7.58 7.58z" fill="#023acd" opacity="1" data-original="#000000" class=""></path><path d="M21.51 50.55h-.05a1.23 1.23 0 0 1-1-.54l-2.7-3.92a1.24 1.24 0 1 1 2-1.4l1.76 2.56 5.83-7.11a1.24 1.24 0 1 1 1.91 1.57l-6.79 8.39a1.27 1.27 0 0 1-.96.45zM21.51 62.87h-.05a1.26 1.26 0 0 1-1-.54l-2.7-3.91a1.24 1.24 0 1 1 2-1.41l1.76 2.56 5.83-7.12A1.24 1.24 0 0 1 29.33 54l-6.86 8.39a1.25 1.25 0 0 1-.96.48zM21.51 75.19h-.05a1.22 1.22 0 0 1-1-.53l-2.7-3.91a1.24 1.24 0 1 1 2-1.41l1.76 2.56 5.83-7.12a1.24 1.24 0 1 1 1.91 1.57l-6.86 8.39a1.25 1.25 0 0 1-.89.45zM51.46 50.55H34.13a1.24 1.24 0 0 1 0-2.47h17.33a1.24 1.24 0 0 1 0 2.47zM59.9 61.75H34.13a1.24 1.24 0 0 1 0-2.48H59.9a1.24 1.24 0 1 1 0 2.48zM59.9 72.94H34.13a1.24 1.24 0 0 1 0-2.47H59.9a1.24 1.24 0 1 1 0 2.47z" fill="#023acd" opacity="1" data-original="#000000" class=""></path></g></svg>