<svg xmlns="http://www.w3.org/2000/svg" version="1.1" xmlns:xlink="http://www.w3.org/1999/xlink" width="512" height="512" x="0" y="0" viewBox="0 0 512 512" style="enable-background:new 0 0 512 512" xml:space="preserve" class=""><g><path d="M478.33 68.409H33.67C15.105 68.409 0 83.514 0 102.079V409.92c0 18.566 15.105 33.67 33.67 33.67h444.66c18.566 0 33.67-15.105 33.67-33.67V102.079c0-18.565-15.105-33.67-33.67-33.67zM119.716 427.557H33.67c-9.725 0-17.637-7.912-17.637-17.637V102.079c0-9.725 7.912-17.637 17.637-17.637h86.046v343.115zm376.251-17.636c0 9.725-7.912 17.637-17.637 17.637H135.75V84.443h342.58c9.725 0 17.637 7.912 17.637 17.637v307.841z" fill="#ffffff" opacity="1" data-original="#000000"></path><path d="M196.142 102.614h-34.205a8.017 8.017 0 0 0 0 16.034h34.205a8.017 8.017 0 0 0 0-16.034zM93.528 102.614H42.221a8.017 8.017 0 0 0 0 16.034h51.307a8.017 8.017 0 0 0 0-16.034zM93.528 188.125H42.221a8.017 8.017 0 0 0 0 16.034h51.307a8.017 8.017 0 0 0 0-16.034zM93.528 256.534H42.221a8.017 8.017 0 0 0 0 16.034h51.307a8.017 8.017 0 0 0 0-16.034zM93.528 324.944H42.221a8.017 8.017 0 0 0 0 16.034h51.307a8.017 8.017 0 0 0 0-16.034zM93.528 222.33H42.221a8.017 8.017 0 0 0 0 16.034h51.307a8.017 8.017 0 0 0 0-16.034zM93.528 290.739H42.221a8.017 8.017 0 0 0 0 16.034h51.307a8.017 8.017 0 0 0 0-16.034zM76.426 376.251H42.221a8.017 8.017 0 0 0 0 16.034h34.205a8.017 8.017 0 0 0 0-16.034zM76.426 136.818H42.221a8.017 8.017 0 0 0 0 16.034h34.205a8.017 8.017 0 0 0 0-16.034zM264.551 102.614h-34.205a8.017 8.017 0 0 0 0 16.034h34.205a8.017 8.017 0 0 0 0-16.034zM332.96 102.614h-34.205a8.017 8.017 0 0 0 0 16.034h34.205a8.017 8.017 0 0 0 0-16.034zM401.37 102.614h-34.205a8.017 8.017 0 0 0 0 16.034h34.205a8.017 8.017 0 0 0 0-16.034zM469.779 102.614h-34.205a8.017 8.017 0 0 0 0 16.034h34.205a8.017 8.017 0 0 0 0-16.034zM252.266 283.797a8.016 8.016 0 0 0-11.224 1.595c-6.636 8.833-16.768 13.899-27.798 13.899-19.155 0-34.739-15.584-34.739-34.739s15.584-34.739 34.739-34.739c11.038 0 21.176 5.073 27.81 13.917 2.657 3.541 7.682 4.26 11.223 1.602s4.258-7.682 1.602-11.223c-9.693-12.92-24.503-20.329-40.636-20.329-27.995 0-50.772 22.777-50.772 50.772s22.777 50.772 50.772 50.772c16.12 0 30.924-7.4 40.617-20.303a8.013 8.013 0 0 0-1.594-11.224zM331.35 280.396c15.247-3.209 26.73-16.76 26.73-32.948 0-18.566-15.105-33.67-33.67-33.67h-42.756a8.017 8.017 0 0 0-8.017 8.017v85.511a8.017 8.017 0 0 0 16.034 0v-26.188h22.18l23.248 30.998a8.007 8.007 0 0 0 6.42 3.207 8.017 8.017 0 0 0 6.407-12.826l-16.576-22.101zm-41.68-15.31v-35.273h34.739c9.725 0 17.637 7.912 17.637 17.637s-7.912 17.637-17.637 17.637H289.67zM469.205 306.508l-8.551-85.51a8.017 8.017 0 0 0-15.42-2.179l-26.762 66.903-26.762-66.903a8.017 8.017 0 0 0-15.42 2.179l-8.551 85.511a8.018 8.018 0 0 0 15.955 1.595l5.293-52.927 22.043 55.107a8.016 8.016 0 0 0 14.886 0l22.043-55.107 5.293 52.927a8.018 8.018 0 0 0 15.953-1.596z" fill="#ffffff" opacity="1" data-original="#000000"></path></g></svg>