<svg xmlns="http://www.w3.org/2000/svg" version="1.1" xmlns:xlink="http://www.w3.org/1999/xlink" width="512" height="512" x="0" y="0" viewBox="0 0 512 512" style="enable-background:new 0 0 512 512" xml:space="preserve" class=""><g><path d="M426.802 335.888c-30.756-15.528-64.55-26.22-97.827-32.936a63.389 63.389 0 0 1-15.657-30.182c20.599-16.11 36.369-40.274 45.009-69.06 23.857-3.612 30.061-40.271 20.599-60.345 43.445-190.382-288.17-190.777-245.757-.415-9.956 20.064-3.761 57.218 20.373 60.779 8.526 28.786 24.41 52.951 45.009 69.06a63.776 63.776 0 0 1-16.6 31.314c-15.751 2.754-25.447 5.074-25.655 5.301C91.765 327.167 34.499 347.13 42.361 426.567c-3.276 113.782 430.382 113.888 427.281.003 3.408-35.841-8.164-74.339-42.84-90.682zM256.217 15.657c74.86-1.031 118.948 48.205 109.24 114.654-4.426-2.132-9.742-2.225-14.506-1.151-1.886-5.659-4.961-14.733-10.243-29.465-.671-1.305-1.768-2.486-2.641-3.678-67.459-44.884-95.62 38.341-156.192-.245-.358-.226-.604-.434-.924-.679-3.094-.789-6.561-.265-8.526 2.528-6.27 12.626-9.564 26.62-11.639 31.54-4.575-1.171-9.595-1.074-13.921.924-9.711-66.393 34.517-115.438 109.352-114.428zm-89.546 177.489c-3.842-9.718-10.218-2.807-14.393-5.998-9.47-6.437-11.824-39.35.341-42.803 6.325-2.081 11.912 5.979 17.844 1.358a8.454 8.454 0 0 0 3.113-5.282c.566-2.547 4.584-14.28 8.979-26.409 69.039 31.684 83.889-40.54 144.572-6.527 7.999 19.532 8.173 29.892 14.259 38.2 5.912 4.649 11.539-3.493 17.847-1.359 4.848 1.358 9.432 10.582 8.3 23.014-.943 10.356-4.848 16.977-7.942 19.788-4.493 2.917-11.318-3.671-14.393 5.999-27.511 111.775-151.125 111.802-178.527.019zm45.707 88.867a88.228 88.228 0 0 0 87.132 0 77.055 77.055 0 0 0 17.6 31.125c-4.018 12.658-32.936 36.615-61.119 54.101-28.296-17.487-57.214-41.5-61.137-54.101a77.354 77.354 0 0 0 17.524-31.125zM57.902 426.566c-5.767-63.339 28.955-79.046 82.171-96.432a284.201 284.201 0 0 0-5.659 30.823c-32.999 9.958-31.215 40.323-26.032 68.155-7.242 9.846 4.999 23.253 15.45 16.807 7.791-4.253 7.492-16.26-.359-20.259-2.931-20.397-8.512-45.611 19.419-49.76 26.465-1.17 26.956 24.466 28.967 43.856-6.787 5.866-3.726 17.564 4.925 19.648 11.381 3.463 19.988-12.115 10.6-19.648-1.711-26.18-5.794-55.38-37.294-59.609a285.313 285.313 0 0 1 7.338-35.087c5.045-1.325 7.368-2.088 23.712-5.074 10.017 23.485 51.706 51.121 67.117 60.553v115.786c-90.6-3.711-190.28-22.243-190.355-69.759zm396.139 0c-.024 47.422-99.68 66.071-190.392 69.758V380.538c15.657-9.677 57.912-37.728 67.362-61.232 7.642 1.45 15.028 3.346 22.316 5.282a288.056 288.056 0 0 1 8.979 49.499c-36.075 12.984-17.678 66.958 18.814 55.209 27.59-8.449 24.972-50.915-3.27-56.115a316.443 316.443 0 0 0-7.149-43.387c53.488 17.271 89.314 33.064 83.34 96.772zm-82.302-38.652c17.724.176 17.768 27.068-.013 27.152-17.792-.123-17.673-27.007.051-27.152h-.038z" fill="#6e7c9a" opacity="1" data-original="#000000"></path></g></svg>